<svg version="1.1" id="Capa_1" xmlns="http://www.w3.org/2000/svg" xmlns:xlink="http://www.w3.org/1999/xlink" x="0px" y="0px"
	 viewBox="0 0 2372 1898" style="enable-background:new 0 0 2372 1898;" xml:space="preserve">
<g id="Capa_2">
</g>
<path style="fill:#EBE9F3;" d="M1185.854,1539.229c526.995,0,954.209-151.125,954.209-337.549
	c0-59.869-44.064-116.096-121.338-164.848c6.751,13.717,10.259,27.785,10.259,42.117c0,19.662-6.603,38.824-19.128,57.269
	c12.527,19.345,19.128,39.429,19.128,60.029c0,155.816-377.482,282.129-843.13,282.129c-465.648,0-843.13-126.313-843.13-282.129
	c0-32.622,16.55-63.952,46.988-93.1c-2.222-7.97-3.362-16.041-3.362-24.199c0-22.095,8.338-43.559,24.047-64.083
	c-0.03-0.156-0.06-0.311-0.087-0.466c-1.757-2.3-3.424-4.611-4.993-6.934c-109.413,54.925-173.673,121.915-173.673,194.214
	C231.645,1388.103,658.859,1539.229,1185.854,1539.229z"/>
<path style="fill:#BBB4DA;" d="M1491.54,1392.054c-105.539,19.088-227.724,29.996-357.954,29.996
	c-399.291,0-722.98-102.534-722.98-229.016c0-9.809,1.949-19.474,5.727-28.959c-2.717-6.975-4.729-14.031-6.021-21.157
	c-9.864-12.911-16.81-26.193-20.599-39.77c-30.439,29.148-46.988,60.477-46.988,93.1c0,155.816,377.482,282.129,843.13,282.129
	c465.648,0,843.13-126.313,843.13-282.129c0-20.6-6.6-40.684-19.128-60.029c-1.524,2.244-3.135,4.477-4.833,6.7
	C1984.341,1257.136,1777.123,1353.115,1491.54,1392.054z"/>
<path style="fill:#9E99C9;" d="M416.332,1164.074c-3.778,9.485-5.727,19.15-5.727,28.959c0,126.482,323.689,229.016,722.98,229.016
	c130.23,0,252.415-10.908,357.954-29.996c-88.211,12.027-183.898,18.613-283.872,18.613
	C804.216,1410.667,470.602,1303.421,416.332,1164.074z"/>
<path style="fill:#FDE3CD;" d="M1207.667,1410.667c99.974,0,195.661-6.586,283.872-18.613
	c285.583-38.939,492.801-134.918,513.484-249.137c-88.503,115.853-411.922,201.751-797.356,201.751s-708.853-85.897-797.356-201.751
	c1.291,7.126,3.304,14.182,6.021,21.157C470.602,1303.421,804.216,1410.667,1207.667,1410.667z"/>
<path style="fill:#FAC289;" d="M1964.457,1087.768c-38.275,114.281-337.462,203.239-700.872,203.239
	c-116.068,0-225.584-9.075-322.142-25.15c-294.27-37.285-509.45-134.639-531.045-250.991c-15.71,20.524-24.047,41.988-24.047,64.083
	c0,8.158,1.14,16.228,3.362,24.199c3.789,13.577,10.735,26.86,20.599,39.77c88.503,115.853,411.922,201.751,797.356,201.751
	s708.853-85.897,797.356-201.751c1.698-2.222,3.309-4.456,4.833-6.7c12.525-18.445,19.128-37.607,19.128-57.269
	c0-14.332-3.508-28.4-10.259-42.117c-3.657-7.429-8.269-14.755-13.789-21.966
	C2000.233,1040.209,1986.347,1064.651,1964.457,1087.768z"/>
<path style="fill:#FDE3CD;" d="M1207.667,1216.15c-385.434,0-708.853-85.898-797.356-201.751c0.027,0.156,0.057,0.311,0.087,0.466
	c21.595,116.352,236.775,213.706,531.045,250.991c83.274,10.551,172.88,16.292,266.224,16.292
	c351.356,0,649.744-81.339,756.79-194.381c21.889-23.116,35.776-47.559,40.479-72.902c0.03-0.156,0.06-0.311,0.088-0.466
	C1916.521,1130.252,1593.101,1216.15,1207.667,1216.15z"/>
<path style="fill:#FAC289;" d="M1207.667,1216.15c385.434,0,708.853-85.898,797.356-201.751c15.652-20.49,23.96-41.915,23.96-63.969
	c0-31.05-16.463-60.855-46.713-88.553c2.043-7.643,3.089-15.379,3.089-23.193c0-0.26-0.006-0.519-0.008-0.779
	c-22.336,38.74-66.472,74.62-127.603,105.917c-0.05,14.343-2.601,28.518-8.631,41.48c51.056-24.92,89.47-52.789,112.28-82.646
	c-19.881,109.784-212.098,202.716-480.591,244.343c1.404,3.249,2.149,6.642,2.149,10.133c0,23.658-34.186,42.836-76.357,42.836
	c-37.933,0-69.403-15.516-75.348-35.851c-22.447,1.714-45.243,3.09-68.346,4.113c-4.109,7.744-9.362,14.789-15.53,20.898
	c-15.729,15.614-37.544,25.285-61.52,25.28c-23.977,0.005-45.793-9.667-61.521-25.28c-5.762-5.707-10.725-12.232-14.704-19.38
	c-23.687-0.571-47.094-1.513-70.171-2.809c-7.904,18.932-38.19,33.03-74.346,33.03c-42.172,0-76.357-19.179-76.357-42.836
	c0-1.399,0.121-2.781,0.354-4.146c-249.559-32.8-440.8-108.974-502.753-203.063c0,0.169-0.004,0.338-0.004,0.507
	c0,19.579,6.546,38.662,18.967,57.035c1.57,2.323,3.237,4.634,4.993,6.934C498.814,1130.252,822.234,1216.15,1207.667,1216.15z"/>
<path style="fill:#FDE3CD;" d="M889.108,1152.986c3.717-21.713,36.323-38.691,76.003-38.691c2.773,0,5.511,0.084,8.207,0.245
	c-2.987-5.418-5.47-11.439-7.347-17.916c-294.597-23.6-526.466-98.645-599.287-193.971c2.925,16.158,9.585,31.951,19.67,47.27
	C448.308,1044.012,639.549,1120.186,889.108,1152.986z"/>
<path style="fill:#FAC289;" d="M965.972,1096.624c-2.596-8.96-4.03-18.793-4.03-29.107c0-4.96,0.332-9.808,0.966-14.501
	c-52.081-5.874-101.86-13.608-148.735-22.986c-242.597-36.052-411.057-115.351-411.057-207.38c0-7.131,1.015-14.186,2.993-21.149
	c-0.217-1.027-0.416-2.055-0.602-3.085c73.013,95.577,305.909,170.766,601.61,194.157c2.419-0.491,4.892-0.746,7.406-0.746
	c4.411,0,8.695,0.783,12.788,2.256c56.562,3.985,115.299,6.084,175.552,6.084c45.25,0,89.643-1.185,132.904-3.463
	c5.785-3.152,12.055-4.877,18.607-4.877c5.023,0,9.884,1.015,14.484,2.909c129.286-8.585,247.49-26.999,346.828-52.722
	c0.004-0.554,0.011-1.106,0.022-1.656c0.327-16.618,2.69-33.109,4.939-49.613c-123.714,34.736-285.202,55.76-461.867,55.76
	c-144.945,0-279.673-14.152-391.706-38.418c-1.026,7.032-3.304,13.82-7.208,19.966c-9.264,14.582-29.485,23.947-46.617,17.992
	c-19.796-6.881-27.091-29.517-26.709-49.05c0.023-1.217,0.069-2.431,0.128-3.646c-39.435-7.976-76.793-17.118-111.708-27.296
	c-0.124,4.727-1.135,9.311-3.633,13.677c-9.591,16.76-39.593,17.178-51.356,1.643c-7.498-9.902-7.84-22.937-5.697-34.928
	c-22.676-8.113-44.003-16.713-63.845-25.75c0.333,10.258,1.848,20.636-4.434,28.708c-12.53,16.104-41.075,7.076-51.292-6.516
	c-14.518-19.312-2.594-32.278,7.741-46.549c-54.428-30.917-92.828-65.828-111.015-103.228c-6.504,13.471-9.884,27.276-9.884,41.338
	c0,7.001,0.841,13.939,2.483,20.803c-26.8,26.239-41.304,54.288-41.304,83.433c0,22.054,8.308,43.48,23.96,63.97
	C439.507,997.98,671.375,1073.024,965.972,1096.624z"/>
<path style="fill:#F8B272;" d="M406.109,801.502c-1.979,6.964-2.993,14.018-2.993,21.149c0,92.029,168.461,171.328,411.057,207.38
	C586.151,984.41,426.876,899.893,406.109,801.502z"/>
<path style="fill:#F8B272;" d="M1964.457,1087.768c-107.046,113.042-405.433,194.381-756.79,194.381
	c-93.344,0-182.95-5.741-266.224-16.292c96.558,16.076,206.073,25.15,322.142,25.15
	C1626.995,1291.006,1926.182,1202.048,1964.457,1087.768z"/>
<path style="fill:#FAC289;" d="M1185.854,1192.096c17.938-0.005,34.068-7.183,45.81-18.812c1.292-1.284,2.527-2.624,3.705-4.009
	c-23.498,0.746-47.29,1.127-71.328,1.127c-8.99,0-17.946-0.055-26.865-0.16c0.925,1.042,1.878,2.059,2.868,3.042
	C1151.785,1184.913,1167.915,1192.091,1185.854,1192.096z"/>
<path style="fill:#FDE3CD;" d="M1762.434,1026.169c-2.506-0.871-4.895-1.891-7.174-3.038
	c-95.685,32.095-216.105,56.419-351.332,69.76c-1.974,7.989-4.855,15.361-8.462,21.858c3.634-0.298,7.351-0.453,11.133-0.453
	c35.948,0,66.094,13.936,74.208,32.704c268.493-41.627,460.71-134.559,480.591-244.343c-22.81,29.857-61.224,57.726-112.28,82.646
	c-1.493,3.21-3.196,6.346-5.131,9.391C1827.779,1020.202,1792.404,1036.586,1762.434,1026.169z"/>
<path style="fill:#FDE3CD;" d="M1337.295,1139.123c-13.325-6.585-24.231-20.658-30.296-38.732
	c-46.428,2.637-94.197,4.013-142.958,4.013c-34.822,0-69.138-0.702-102.821-2.063c-5.865,16.264-15.711,29.076-27.679,35.763
	c5.074,5.732,7.927,12.193,7.927,19.028c0,3.374-0.696,6.657-2.011,9.807c23.077,1.296,46.484,2.238,70.171,2.809
	c-6.892-12.383-10.828-26.638-10.822-41.765c0-6.161,4.994-11.155,11.154-11.155c6.16,0,11.155,4.994,11.155,11.155
	c0.007,16.218,6.045,30.948,16.061,42.26c8.92,0.105,17.875,0.16,26.865,0.16c24.038,0,47.83-0.381,71.328-1.127
	c9.515-11.179,15.218-25.533,15.223-41.293h0.002c0-6.161,4.994-11.155,11.154-11.155c6.16,0,11.155,4.994,11.155,11.155
	c0.004,14.511-3.617,28.222-9.998,40.246c23.103-1.022,45.9-2.398,68.346-4.113c-0.665-2.273-1.011-4.606-1.011-6.985
	C1330.24,1150.699,1332.767,1144.598,1337.295,1139.123z"/>
<path style="fill:#FAC289;" d="M1301.851,1063.987c-32.434,1.438-65.469,2.179-98.988,2.179c-46.326,0-91.729-1.415-135.895-4.129
	c0.09,1.811,0.136,3.637,0.136,5.481c0,12.557-2.124,24.398-5.884,34.823c33.683,1.361,67.999,2.063,102.821,2.063
	c48.761,0,96.531-1.376,142.958-4.013c-3.335-9.941-5.205-21.093-5.205-32.873
	C1301.795,1066.334,1301.815,1065.157,1301.851,1063.987z"/>
<path style="fill:#FAC289;" d="M1406.431,1056.781c0.346,3.507,0.526,7.092,0.526,10.737c0,8.9-1.068,17.441-3.029,25.373
	c135.226-13.34,255.647-37.664,351.332-69.76c-12.095-6.085-21.059-15.876-27.366-27.512
	C1636.629,1024.173,1527.105,1045.412,1406.431,1056.781z"/>
<path style="fill:#FDE3CD;" d="M1850.404,897.92c1.052,3.502,2.026,7.026,2.898,10.577c2.822,11.496,4.487,23.467,4.446,35.324
	c61.131-31.297,105.267-67.176,127.603-105.917c7.42-12.868,12.436-26.052,14.868-39.488
	C1972.118,835.201,1920.336,868.965,1850.404,897.92z"/>
<path style="fill:#FDE3CD;" d="M1066.968,1062.037c44.166,2.714,89.569,4.129,135.895,4.129c33.519,0,66.555-0.741,98.988-2.179
	c0.985-30.837,14.786-56.861,33.916-67.282c-43.262,2.277-87.655,3.463-132.904,3.463c-60.252,0-118.99-2.099-175.552-6.084
	C1048.983,1001.878,1065.327,1029.029,1066.968,1062.037z"/>
<path style="fill:#FDE3CD;" d="M1007.117,992.573c-295.701-23.391-528.598-98.58-601.61-194.157c0.186,1.03,0.385,2.058,0.602,3.085
	c20.767,98.392,180.042,182.909,408.064,228.529c46.876,9.378,96.654,17.112,148.735,22.986
	C967.146,1021.576,984.901,997.082,1007.117,992.573z"/>
<path style="fill:#FDE3CD;" d="M1406.431,1056.781c120.674-11.369,230.198-32.607,321.463-61.162
	c-8.674-16-12.33-35.483-12.206-53.604c-99.339,25.723-217.542,44.137-346.828,52.722
	C1388.537,1002.836,1403.495,1027.023,1406.431,1056.781z"/>
<path style="fill:#FAC289;" d="M1972.825,675.143c-2.649,8.656-6.372,17.196-11.12,25.602c1.38,5.832,2.084,11.724,2.084,17.67
	c0,49.418-48.578,95.165-131.125,132.516c6.443,15.525,12.939,31.026,17.74,46.989c69.932-28.954,121.714-62.719,149.815-99.503
	c15.653-20.49,23.961-41.916,23.961-63.97c0-26.707-12.183-52.494-34.841-76.812
	C1984.569,664.053,1979.002,669.861,1972.825,675.143z"/>
<path style="fill:#F8B272;" d="M1963.789,718.414c0-5.946-0.704-11.839-2.084-17.67c-23.837,42.197-73.517,81.031-142.862,114.283
	c1.03,3.249,2.149,6.456,3.316,9.601c3.276,8.832,6.883,17.57,10.505,26.302C1915.211,813.579,1963.789,767.832,1963.789,718.414z"
	/>
<path style="fill:#F8B272;" d="M1724.501,855.57c0.057-0.936,0.108-1.874,0.153-2.812c-60.915,20.461-130.768,37.54-207.234,50.401
	c-0.873,2.363-1.952,4.697-3.267,6.995c-16.138,28.195-65.294,29.952-87.34,5.875c-78.141,9.152-161.578,14.102-248.24,14.102
	c-110.478,0-215.719-8.043-311.423-22.583c-0.025,0.181-0.049,0.36-0.075,0.54c112.033,24.266,246.761,38.418,391.706,38.418
	c176.665,0,338.153-21.024,461.867-55.76C1722.244,879.043,1723.783,867.335,1724.501,855.57z"/>
<path style="fill:#FDE3CD;" d="M502.445,796.336c5.12-7.068,9.848-14.456,10.784-23.094c1.155-10.673-2.232-17.801-8.158-22.716
	c-5.432-2.512-10.734-5.056-15.9-7.631c-13.86-3.928-30.646-4.523-41.826-7.449c-9.369-2.453-18.328-7.641-22.83-15.62
	c-3.964-7.025-5.819-13.872-5.948-20.499c-15.122-11.907-27.646-24.248-37.348-36.948c1.883,10.404,5.315,20.657,10.213,30.729
	C409.617,730.509,448.017,765.419,502.445,796.336z"/>
<path style="fill:#FDE3CD;" d="M622.163,807.535c0.169-4.736-0.542-9.761-2.224-14.336c-13.463-4.043-26.507-8.23-39.107-12.554
	c-13.251,4.794-25.581,13.407-29.167,25.944c-1.288,4.508-1.392,9.293-1.235,14.104c19.841,9.038,41.168,17.637,63.845,25.75
	c0.101-0.56,0.204-1.119,0.315-1.674C617.066,832.33,621.715,820.176,622.163,807.535z"/>
<path style="fill:#FDE3CD;" d="M1961.705,700.744c4.748-8.406,8.471-16.946,11.12-25.602c-8.047,6.878-17.127,12.861-26.825,18.132
	c-31.403,26.575-75.612,51.102-130.189,72.788c-4.974,15.532-2.105,32.758,3.032,48.964
	C1888.188,781.775,1937.868,742.941,1961.705,700.744z"/>
<path style="fill:#FDE3CD;" d="M791.567,848.528c0.316-5.194,0.318-10.483-0.154-15.713c-42.306-7.329-82.397-15.822-119.864-25.347
	c-1.289,2.598-2.245,5.35-2.81,8.244c-3.224,16.527,6.643,34.265,6.221,50.339c34.915,10.178,72.273,19.32,111.708,27.296
	C787.405,878.359,790.652,863.523,791.567,848.528z"/>
<path style="fill:#FDE3CD;" d="M1724.653,852.758c0.873-18.17-0.549-36.891-6.488-54.015
	c-61.122,17.246-130.208,31.613-205.24,42.445c5.011,21.451,11.603,42.735,4.494,61.971
	C1593.886,890.297,1663.739,873.219,1724.653,852.758z"/>
<path style="fill:#FDE3CD;" d="M851.909,842.282c4.952,12.03,10.208,23.967,13.283,36.5c2.299,9.362,3.255,19.276,1.958,28.765
	c95.704,14.54,200.945,22.583,311.423,22.583c86.662,0,170.099-4.95,248.24-14.102c-0.878-0.959-1.715-1.959-2.503-3.001
	c-12.884-17.017-13.691-39.322-10.163-59.989c-39.96,3.864-81.198,6.769-123.46,8.636c-16.203,14.914-42.627,12.332-63.015,1.989
	c-16.243,0.31-32.614,0.468-49.098,0.468C1062.484,864.131,952.022,856.338,851.909,842.282z"/>
<path style="fill:#FAC289;" d="M418.565,699.328c-0.359-18.409,12.613-35.109,30.753-49.148
	c-20.584-21.419-31.671-44.191-31.671-67.802c0-125.971,315.643-228.091,705.007-228.091c173.986,0,333.248,20.391,456.209,54.187
	c3.84,0.144,7.681,0.301,11.52,0.473c73.591,3.316,147.411,12.018,218.036,30.951c16.949,4.544,33.713,9.676,50.246,15.466
	c15.809,5.535,31.547,11.788,46.591,19.103c-137.676-84.316-411.439-141.778-726.685-141.778
	c-453.6,0-821.317,118.967-821.317,265.72c0,22.054,8.308,43.48,23.961,63.969C390.92,675.08,403.444,687.421,418.565,699.328z"/>
<path style="fill:#FAC289;" d="M505.07,750.527c-4.243-3.516-9.787-5.899-15.9-7.631C494.337,745.47,499.638,748.015,505.07,750.527
	z"/>
<path style="fill:#FAC289;" d="M1946,693.275c-17.049,9.268-36.006,16.334-54.604,22.183c-27.64,8.693-58.84,18.069-71.974,42.155
	c-1.498,2.747-2.689,5.57-3.611,8.451C1870.389,744.376,1914.597,719.85,1946,693.275z"/>
<path style="fill:#FAC289;" d="M619.939,793.199c-2.582-7.03-7.456-13-14.958-15.233c-6.439-1.917-13.472-0.639-19.91,1.281
	c-1.417,0.423-2.834,0.889-4.239,1.398C593.432,784.969,606.476,789.156,619.939,793.199z"/>
<path style="fill:#FAC289;" d="M845.993,792.236c-0.056,0.099-0.113,0.198-0.167,0.298c-6.399,11.732-3.047,25.88,1.565,38.307
	c1.423,3.838,2.956,7.644,4.519,11.441c100.113,14.056,210.575,21.849,326.664,21.849c16.484,0,32.855-0.158,49.098-0.468
	c-9.252-4.694-17.261-10.984-22.508-17.963c-10.256-13.643-12.967-25.475-11.366-36.379c-23.395,0.759-47.129,1.148-71.143,1.148
	C1024.45,810.469,930.936,803.972,845.993,792.236z"/>
<path style="fill:#FAC289;" d="M1718.166,798.742c-3.056-8.81-7.306-17.197-13.053-24.869
	c-14.699-19.622-37.818-31.982-63.149-37.23c-35.421,12.475-75.081,23.67-118.242,33.346c-7.029,8.203-12.044,17.651-14.096,28.173
	c-2.738,14.034-0.078,28.567,3.299,43.025C1587.958,830.355,1657.044,815.989,1718.166,798.742z"/>
<path style="fill:#FAC289;" d="M780.483,801.828c-14.582-19.466-43.659-26.431-68.686-21.334
	c-16.748,3.411-33.311,12.973-40.248,26.974c37.467,9.524,77.558,18.017,119.864,25.347
	C790.414,821.724,787.28,810.901,780.483,801.828z"/>
<path style="fill:#FAC289;" d="M1414.895,848.995c4.057-20.387,11.453-40.335,13.014-60.956
	c-39.846,6.201-81.77,11.227-125.345,14.937c0.215,19.19,4.117,38.977-7.668,54.123c-1.307,1.68-2.715,3.202-4.21,4.577
	c42.262-1.866,83.5-4.772,123.46-8.636C1414.378,851.683,1414.627,850.334,1414.895,848.995z"/>
<path style="fill:#F8B272;" d="M1284.681,434.251c40.926-9.976,82.613-16.81,124.664-21.076
	c-85.214-13.285-186.337-19.371-294.557-15.974c-300.251,9.424-541.419,88.265-538.661,176.094
	c0.278,8.856,3.026,17.465,8.049,25.777c43.064-6.5,87.087-7.808,130.727-5.842c42.067,1.895,84.264,6.869,124.634,17.692
	c9.688,2.598,19.271,5.532,28.722,8.84c25.154,8.807,49.993,20.792,66.812,40.183c16.818,19.391,23.921,47.558,11.626,69.657
	c-2.903,5.218-6.666,9.812-11.048,13.885c29.048,1.362,58.753,2.067,88.967,2.067c74.116,0,145.171-4.241,210.972-12.014
	c0.941-3.131,1.624-6.352,1.984-9.678c6.745-62.327-75.02-55.586-115.261-66.12c-16.391-4.29-32.062-13.367-39.94-27.326
	C1026.452,531.332,1210.274,452.389,1284.681,434.251z"/>
<path style="fill:#F8B272;" d="M1122.655,354.287c-389.364,0-705.007,102.12-705.007,228.091c0,23.61,11.088,46.383,31.671,67.802
	c27.974-21.651,68.237-36.976,90.838-42.485c2.736-0.667,5.479-1.309,8.226-1.928c-12.805-12.938-19.859-26.754-20.314-41.229
	c-2.757-87.83,238.41-166.671,538.663-176.095c129.607-4.068,249.034,5.466,343.146,24.678
	c55.999-5.653,112.642-6.753,168.985-4.647C1455.902,374.678,1296.64,354.287,1122.655,354.287z"/>
<path style="fill:#F8B272;" d="M1641.964,736.643c-18.631-3.859-38.457-3.872-57.013-0.093
	c-23.434,4.773-46.659,16.43-61.229,33.438C1566.882,760.313,1606.542,749.118,1641.964,736.643z"/>
<path style="fill:#F8B272;" d="M1428.143,783.856c0.269-7.61-0.757-15.646-3.206-23.108c-37.228,6.593-76.792,11.977-118.191,15.989
	c-0.75,1.772-1.397,3.594-1.933,5.465c-1.906,6.667-2.33,13.679-2.25,20.773c43.575-3.71,85.499-8.735,125.345-14.937
	C1428.015,786.647,1428.094,785.254,1428.143,783.856z"/>
<path style="fill:#F8B272;" d="M885.865,768.783c-15.403,4.839-32.447,10.222-39.872,23.453
	c84.943,11.737,178.458,18.234,276.662,18.234c24.014,0,47.747-0.389,71.143-1.148c1.328-9.039,5.619-17.44,11.036-25.705
	c-24.528,0.963-49.502,1.458-74.834,1.458C1043.255,785.074,960.707,779.264,885.865,768.783z"/>
<path style="fill:#FBCA96;" d="M1066.733,388.444c-300.253,9.424-541.419,88.264-538.663,176.095
	c0.455,14.475,7.509,28.29,20.314,41.229c11.837-2.664,23.777-4.881,35.792-6.694c-5.024-8.312-7.772-16.921-8.049-25.777
	c-2.758-87.83,238.41-166.67,538.661-176.094c108.22-3.397,209.343,2.689,294.557,15.974c0.179-0.018,0.355-0.036,0.534-0.054
	C1315.767,393.909,1196.34,384.375,1066.733,388.444z"/>
<path style="fill:#ECA06B;" d="M935.648,743.488c-12.85,11.944-31.048,19.404-48.682,24.949c-0.366,0.115-0.732,0.23-1.102,0.346
	c74.843,10.482,157.391,16.291,244.134,16.291c25.332,0,50.306-0.495,74.834-1.458c10.48-15.988,25.172-31.468,30.754-50.075
	c-65.801,7.773-136.856,12.014-210.972,12.014C994.401,745.555,964.696,744.85,935.648,743.488z"/>
<path style="fill:#ECA06B;" d="M1398.084,732.127c-11.263-3.353-23.567-1.117-34.831,2.242
	c-23.854,7.115-47.543,21.174-56.508,42.367c41.4-4.011,80.964-9.395,118.191-15.989
	C1420.626,747.604,1411.905,736.241,1398.084,732.127z"/>
<path style="fill:#ECA06B;" d="M987.204,701.383c16.685,19.663,50.884,33.232,50.884,33.232
	C1015.147,695.579,987.204,701.383,987.204,701.383z"/>
<path style="fill:#ECA06B;" d="M669.912,536.581c21.347-14.467,38.524-47.005,38.524-47.005
	C667.153,508.177,669.912,536.581,669.912,536.581z"/>
<path style="fill:#ECA06B;" d="M1140.209,432.279c-42.29-16.178-60.497,5.798-60.497,5.798
	C1105.021,443.026,1140.209,432.279,1140.209,432.279z"/>
<path style="fill:#ECA06B;" d="M970.952,456.105c7.02,24.814,32.505,51.352,32.505,51.352
	C998.783,462.42,970.952,456.105,970.952,456.105z"/>
<path style="fill:#ECA06B;" d="M485.476,515.313c25.774,0.813,58.778-15.454,58.778-15.454
	C499.91,490.695,485.476,515.313,485.476,515.313z"/>
<path style="fill:#ECA06B;" d="M1313.052,387.517c-26.752-18.995-41.465-6.95-41.465-6.95
	C1288.119,388.627,1313.052,387.517,1313.052,387.517z"/>
<path style="fill:#ECA06B;" d="M1178.573,701.078c-32.472-31.556-57.874-18.55-57.874-18.55
	C1142,697.063,1178.573,701.078,1178.573,701.078z"/>
<path style="fill:#ECA06B;" d="M1023.948,553.405c-13.253,15.84-19.316,44.677-19.316,44.677
	C1032.324,574.669,1023.948,553.405,1023.948,553.405z"/>
<path style="fill:#ECA06B;" d="M869.665,485.448c-34.468-11.269-48.164,7.029-48.164,7.029
	C841.941,495.435,869.665,485.448,869.665,485.448z"/>
<path style="fill:#ECA06B;" d="M835.624,587.452c20.439,2.958,48.162-7.029,48.162-7.029
	C849.318,569.154,835.624,587.452,835.624,587.452z"/>
<path style="fill:#ECA06B;" d="M485.474,587.282c-16.588,9.839-30.876,33.356-30.876,33.356
	C486.254,608.611,485.474,587.282,485.474,587.282z"/>
<path style="fill:#ECA06B;" d="M643.732,431.691c30.865,13.931,45.422-1.678,45.422-1.678
	C670.475,425.209,643.732,431.691,643.732,431.691z"/>
<path style="fill:#B24722;" d="M1975.549,525.661c-18.853-21.735-43.466-38.151-70.292-51.193
	c-15.044-7.314-30.782-13.567-46.591-19.103c-16.534-5.789-33.297-10.922-50.246-15.466
	c-70.625-18.933-144.445-27.635-218.036-30.951c-3.839-0.173-7.679-0.33-11.52-0.473c-56.343-2.106-112.985-1.006-168.985,4.647
	c-0.178,0.017-0.355,0.036-0.534,0.054c-42.051,4.266-83.738,11.1-124.664,21.076c-74.407,18.138-258.229,97.081-202.311,196.167
	c7.878,13.958,23.549,23.035,39.94,27.326c40.241,10.534,122.006,3.793,115.261,66.12c-0.36,3.326-1.043,6.546-1.984,9.678
	c-5.582,18.606-20.274,34.086-30.754,50.075c-5.417,8.265-9.708,16.666-11.036,25.705c-1.601,10.904,1.11,22.736,11.366,36.379
	c5.247,6.979,13.256,13.269,22.508,17.963c20.388,10.343,46.813,12.925,63.015-1.989c1.494-1.375,2.902-2.897,4.21-4.577
	c11.785-15.146,7.883-34.933,7.668-54.123c-0.08-7.094,0.344-14.107,2.25-20.773c0.536-1.871,1.182-3.693,1.933-5.465
	c8.965-21.193,32.653-35.252,56.508-42.367c11.263-3.36,23.567-5.595,34.831-2.242c13.821,4.114,22.542,15.477,26.853,28.621
	c2.449,7.462,3.475,15.498,3.206,23.108c-0.049,1.398-0.128,2.791-0.234,4.182c-1.562,20.622-8.958,40.569-13.014,60.956
	c-0.267,1.34-0.516,2.688-0.748,4.044c-3.528,20.667-2.721,42.972,10.163,59.989c0.789,1.041,1.625,2.042,2.503,3.001
	c22.046,24.078,71.203,22.321,87.34-5.875c1.315-2.299,2.394-4.632,3.267-6.995c7.109-19.237,0.517-40.52-4.494-61.971
	c-3.377-14.458-6.037-28.991-3.299-43.025c2.052-10.522,7.067-19.969,14.096-28.173c14.57-17.008,37.795-28.666,61.229-33.438
	c18.556-3.78,38.382-3.767,57.013,0.093c25.331,5.248,48.45,17.607,63.149,37.23c5.747,7.672,9.997,16.059,13.053,24.869
	c5.939,17.124,7.361,35.845,6.488,54.015c-0.045,0.939-0.095,1.876-0.153,2.812c-0.717,11.765-2.256,23.474-3.853,35.175
	c-2.25,16.505-4.612,32.996-4.939,49.613c-0.011,0.55-0.017,1.102-0.022,1.656c-0.124,18.121,3.532,37.603,12.206,53.604
	c6.307,11.637,15.271,21.428,27.366,27.512c2.28,1.147,4.668,2.167,7.174,3.038c29.97,10.417,65.345-5.967,81.552-31.476
	c1.935-3.045,3.638-6.181,5.131-9.391c6.03-12.963,8.581-27.137,8.631-41.48c0.041-11.857-1.624-23.828-4.446-35.324
	c-0.871-3.551-1.845-7.076-2.898-10.577c-4.802-15.963-11.298-31.465-17.74-46.989c-3.622-8.732-7.228-17.47-10.505-26.302
	c-1.167-3.145-2.286-6.353-3.316-9.601c-5.137-16.206-8.006-33.432-3.032-48.964c0.922-2.881,2.112-5.704,3.611-8.451
	c13.134-24.086,44.334-33.462,71.974-42.155c18.598-5.849,37.554-12.915,54.604-22.183c9.697-5.271,18.778-11.255,26.825-18.132
	c6.177-5.281,11.744-11.089,16.513-17.507c2.391-3.215,4.583-6.582,6.548-10.114
	C2017.398,608.861,2004.972,559.584,1975.549,525.661z"/>
<path style="fill:#A4371A;" d="M1838.572,977.487c8.719-18.104,7.427-47.346-12.469-52.626c-5.108-1.355-11.793,0.325-15.526,5.109
	c-6.748,8.647-1.557,19.918-1.517,28.6c0.046,10.331-3.43,21.233-9.636,30.671c-9.328,14.182-19.209,15.399-32.886,22.535
	c-6.158,3.214-7.759,4.793-1.591,6.919c7.021,2.42,18.244,0.046,27.214-2.884c2.314-0.756,4.479-1.549,6.383-2.306
	C1815.21,1006.874,1830.706,993.818,1838.572,977.487z"/>
<path style="fill:#A4371A;" d="M1437.078,848.73c-15.184,4.029-16.169,26.346-9.515,40.161
	c6.003,12.464,17.827,22.427,30.546,27.486c1.453,0.578,3.105,1.183,4.87,1.76c6.847,2.236,15.41,4.048,20.769,2.201
	c4.707-1.623,3.486-2.827-1.214-5.279c-10.438-5.446-17.978-6.374-25.096-17.198c-4.737-7.202-7.39-15.523-7.354-23.407
	c0.03-6.625,3.992-15.226-1.157-21.825C1446.078,848.978,1440.975,847.695,1437.078,848.73z"/>
<path style="fill:#A4371A;" d="M1233.944,791.031c-2.848-3.651-7.95-4.933-11.848-3.899c-15.184,4.03-16.17,26.346-9.516,40.161
	c6.003,12.463,17.829,22.427,30.547,27.485c1.453,0.578,3.105,1.183,4.871,1.76c6.846,2.236,15.41,4.048,20.768,2.201
	c4.708-1.623,3.485-2.827-1.214-5.28c-10.437-5.446-17.977-6.374-25.095-17.198c-4.738-7.202-7.391-15.522-7.354-23.406
	C1235.134,806.231,1239.095,797.63,1233.944,791.031z"/>
<path style="fill:#A4371A;" d="M1324.628,596.597c24.054-12.603,47.976-25.48,73.104-36.207
	c61.76-26.365,129.393-39.399,197.144-45.162c15.783-1.343,34.969-4.56,40.147-18.397c1.465-3.915,1.449-8.092,0.459-12.148
	c-0.839-3.438-2.376-6.787-4.303-9.815c-14.365-22.581-45.811-29.425-73.933-32.781c-103.679-12.372-212.838-5.465-306.276,37.841
	c-27.399,12.699-53.724,28.874-71.914,51.666c-11.908,14.92-20.173,33.811-15.764,51.893c4.291,17.604,20.188,31.438,38.335,38.123
	C1249.884,639.386,1284.318,617.717,1324.628,596.597z"/>
<path style="fill:#B24722;" d="M935.07,659.946c-16.819-19.391-41.659-31.375-66.812-40.183c-9.451-3.309-19.034-6.243-28.722-8.84
	c-40.37-10.823-82.566-15.797-124.634-17.692c-43.64-1.967-87.663-0.658-130.727,5.842c-12.015,1.813-23.955,4.03-35.792,6.694
	c-2.748,0.619-5.49,1.261-8.226,1.928c-22.602,5.509-62.865,20.834-90.838,42.485c-18.141,14.04-31.112,30.739-30.753,49.148
	c0.129,6.626,1.984,13.474,5.948,20.499c4.502,7.979,13.461,13.168,22.83,15.62c11.18,2.926,27.965,3.521,41.826,7.449
	c6.113,1.732,11.657,4.115,15.9,7.631c5.927,4.914,9.313,12.043,8.158,22.716c-0.935,8.638-5.663,16.026-10.784,23.094
	c-10.335,14.272-22.259,27.237-7.741,46.549c10.218,13.592,38.762,22.619,51.292,6.516c6.282-8.072,4.767-18.451,4.434-28.708
	c-0.157-4.811-0.053-9.596,1.235-14.104c3.586-12.537,15.916-21.151,29.167-25.944c1.406-0.509,2.822-0.975,4.239-1.398
	c6.438-1.92,13.471-3.198,19.91-1.281c7.502,2.233,12.376,8.203,14.958,15.233c1.682,4.575,2.393,9.6,2.224,14.336
	c-0.448,12.641-5.097,24.795-7.573,37.235c-0.11,0.555-0.214,1.114-0.315,1.674c-2.144,11.991-1.802,25.026,5.697,34.928
	c11.763,15.535,41.765,15.117,51.356-1.643c2.499-4.366,3.509-8.95,3.633-13.677c0.422-16.074-9.445-33.813-6.221-50.339
	c0.565-2.894,1.521-5.646,2.81-8.244c6.937-14.001,23.5-23.563,40.248-26.974c25.027-5.097,54.104,1.868,68.686,21.334
	c6.797,9.074,9.93,19.896,10.93,30.987c0.472,5.23,0.47,10.519,0.154,15.713c-0.915,14.995-4.163,29.831-4.898,44.82
	c-0.059,1.215-0.105,2.43-0.128,3.646c-0.383,19.533,6.912,42.169,26.709,49.05c17.131,5.955,37.353-3.41,46.617-17.992
	c3.904-6.146,6.183-12.933,7.208-19.966c0.026-0.18,0.05-0.36,0.075-0.54c1.296-9.489,0.34-19.403-1.958-28.765
	c-3.075-12.533-8.331-24.47-13.283-36.5c-1.562-3.797-3.096-7.604-4.519-11.441c-4.611-12.427-7.964-26.574-1.565-38.307
	c0.054-0.1,0.112-0.199,0.167-0.298c7.425-13.231,24.469-18.614,39.872-23.453c0.369-0.115,0.735-0.231,1.102-0.346
	c17.634-5.545,35.831-13.005,48.682-24.949c4.382-4.073,8.145-8.666,11.048-13.885C958.992,707.504,951.889,679.337,935.07,659.946z
	"/>
<path style="fill:#A4371A;" d="M849.644,888.135c-2.92-0.775-6.741,0.186-8.875,2.92c-3.857,4.943-0.889,11.386-0.867,16.348
	c0.027,5.905-1.959,12.138-5.507,17.532c-5.333,8.107-10.98,8.802-18.798,12.882c-3.521,1.837-4.435,2.74-0.91,3.955
	c4.014,1.383,10.428,0.026,15.556-1.649c1.324-0.432,2.56-0.885,3.648-1.318c9.527-3.79,18.384-11.252,22.881-20.588
	C861.755,907.869,861.017,891.154,849.644,888.135z"/>
<path style="fill:#A4371A;" d="M634.043,846.846c-1.629-2.087-4.544-2.82-6.772-2.228c-8.68,2.303-9.243,15.059-5.439,22.957
	c3.43,7.124,10.19,12.82,17.461,15.711c0.829,0.331,1.774,0.677,2.784,1.006c3.914,1.279,8.808,2.314,11.872,1.258
	c2.691-0.928,1.992-1.617-0.694-3.018c-5.966-3.113-10.276-3.644-14.345-9.831c-2.708-4.117-4.224-8.873-4.204-13.38
	C634.723,855.535,636.987,850.618,634.043,846.846z"/>
<path style="fill:#A4371A;" d="M516.022,837.491c-2.708-4.116-4.224-8.873-4.204-13.379c0.018-3.787,2.283-8.704-0.662-12.476
	c-1.629-2.086-4.544-2.82-6.774-2.228c-8.679,2.304-9.243,15.06-5.439,22.957c3.432,7.125,10.192,12.82,17.461,15.711
	c0.831,0.33,1.775,0.676,2.784,1.006c3.914,1.278,8.808,2.314,11.871,1.258c2.692-0.928,1.994-1.616-0.693-3.018
	C524.401,844.208,520.091,843.678,516.022,837.491z"/>
<path style="fill:#A4371A;" d="M520.888,633.804c-15.662,7.259-30.71,16.505-41.107,29.533c-6.807,8.529-11.531,19.327-9.011,29.663
	c2.453,10.063,11.54,17.97,21.912,21.791c27.586,10.162,47.269-2.224,70.31-14.297c13.75-7.205,27.425-14.566,41.788-20.697
	c35.303-15.071,73.963-22.521,112.692-25.815c9.022-0.767,19.988-2.607,22.949-10.516c0.838-2.238,0.828-4.626,0.262-6.944
	c-0.48-1.965-1.358-3.88-2.459-5.61c-8.212-12.908-26.186-16.82-42.26-18.739C636.696,605.101,574.298,609.049,520.888,633.804z"/>
<path style="fill:#EA7573;" d="M1041.469,1157.132c0-6.835-2.853-13.296-7.927-19.028c-5.899,3.295-12.312,5.104-19.018,5.104
	c-16.694,0-31.572-11.201-41.204-28.667c-2.696-0.162-5.435-0.245-8.207-0.245c-39.68,0-72.287,16.979-76.003,38.691
	c-0.233,1.364-0.354,2.747-0.354,4.146c0,23.658,34.185,42.836,76.357,42.836c36.156,0,66.442-14.098,74.346-33.03
	C1040.773,1163.788,1041.469,1160.506,1041.469,1157.132z"/>
<path style="fill:#EA7573;" d="M1406.599,1114.295c-3.782,0-7.5,0.155-11.133,0.453c-9.636,17.347-24.462,28.459-41.091,28.459
	c-5.979,0-11.724-1.437-17.08-4.084c-4.528,5.475-7.055,11.576-7.055,18.009c0,2.378,0.346,4.712,1.011,6.985
	c5.946,20.335,37.415,35.851,75.348,35.851c42.171,0,76.357-19.179,76.357-42.836c0-3.491-0.745-6.884-2.149-10.133
	C1472.693,1128.231,1442.547,1114.295,1406.599,1114.295z"/>
<path style="fill:#432918;" d="M1066.968,1062.037c-1.641-33.008-17.985-60.158-39.657-67.953
	c-4.094-1.473-8.377-2.256-12.788-2.256c-2.514,0-4.987,0.255-7.406,0.746c-22.216,4.509-39.971,29.002-44.209,60.443
	c-0.634,4.693-0.966,9.541-0.966,14.501c0,10.314,1.434,20.146,4.03,29.107c1.876,6.477,4.359,12.498,7.347,17.916
	c9.632,17.465,24.51,28.667,41.204,28.667c6.707,0,13.119-1.809,19.018-5.104c11.968-6.687,21.813-19.499,27.679-35.763
	c3.76-10.425,5.884-22.266,5.884-34.823C1067.104,1065.674,1067.058,1063.847,1066.968,1062.037z"/>
<path style="fill:#FFFFFF;" d="M1022.059,1034.447c0-13.855-7.804-25.087-17.427-25.087c-9.625,0-17.428,11.232-17.428,25.087
	c0,13.854,7.803,25.087,17.428,25.087C1014.256,1059.534,1022.059,1048.302,1022.059,1034.447z"/>
<path style="fill:#432918;" d="M1406.431,1056.781c-2.936-29.758-17.894-53.945-37.572-62.044c-4.6-1.894-9.461-2.909-14.484-2.909
	c-6.552,0-12.823,1.725-18.607,4.877c-19.13,10.422-32.931,36.445-33.916,67.282c-0.036,1.17-0.057,2.347-0.057,3.531
	c0,11.78,1.87,22.932,5.205,32.873c6.064,18.074,16.971,32.147,30.296,38.732c5.356,2.647,11.101,4.084,17.08,4.084
	c16.629,0,31.455-11.112,41.091-28.459c3.607-6.497,6.488-13.868,8.462-21.858c1.961-7.932,3.029-16.473,3.029-25.373
	C1406.957,1063.873,1406.776,1060.288,1406.431,1056.781z"/>
<path style="fill:#FFFFFF;" d="M1344.484,1059.534c9.624,0,17.427-11.232,17.427-25.087c0-13.855-7.803-25.087-17.427-25.087
	c-9.625,0-17.428,11.232-17.428,25.087C1327.056,1048.302,1334.859,1059.534,1344.484,1059.534z"/>
<path style="fill:#432918;" d="M1272.903,1127.983c0-6.161-4.995-11.155-11.155-11.155c-6.16,0-11.154,4.994-11.154,11.155h-0.002
	c-0.005,15.76-5.708,30.115-15.223,41.293c-1.178,1.385-2.413,2.725-3.705,4.009c-11.741,11.628-27.872,18.807-45.81,18.812
	c-17.938-0.005-34.069-7.183-45.81-18.812c-0.99-0.983-1.943-2-2.868-3.042c-10.016-11.312-16.054-26.042-16.061-42.26
	c0-6.161-4.995-11.155-11.155-11.155c-6.16,0-11.154,4.994-11.154,11.155c-0.006,15.126,3.93,29.381,10.822,41.765
	c3.979,7.148,8.943,13.672,14.704,19.38c15.729,15.614,37.545,25.285,61.521,25.28c23.976,0.005,45.792-9.667,61.52-25.28
	c6.168-6.109,11.421-13.154,15.53-20.898C1269.286,1156.205,1272.907,1142.494,1272.903,1127.983z"/>
</svg>